<svg width="100" height="100" viewBox="0 0 100 100" fill="none" xmlns="http://www.w3.org/2000/svg">
<rect x="0.5" y="0.5" width="99" height="99" stroke="#999393"/>
<path d="M33.5117 75V23.8125H50.2461C55.8008 23.8125 59.9727 24.9609 62.7617 27.2578C65.5742 29.5547 66.9805 32.9531 66.9805 37.4531C66.9805 39.8438 66.3008 41.9648 64.9414 43.8164C63.582 45.6445 61.7305 47.0625 59.3867 48.0703C62.1523 48.8438 64.332 50.3203 65.9258 52.5C67.543 54.6562 68.3516 57.2344 68.3516 60.2344C68.3516 64.8281 66.8633 68.4375 63.8867 71.0625C60.9102 73.6875 56.7031 75 51.2656 75H33.5117ZM40.2617 51.0586V69.4805H51.4062C54.5469 69.4805 57.0195 68.6719 58.8242 67.0547C60.6523 65.4141 61.5664 63.1641 61.5664 60.3047C61.5664 54.1406 58.2148 51.0586 51.5117 51.0586H40.2617ZM40.2617 45.6445H50.457C53.4102 45.6445 55.7656 44.9062 57.5234 43.4297C59.3047 41.9531 60.1953 39.9492 60.1953 37.418C60.1953 34.6055 59.375 32.5664 57.7344 31.3008C56.0938 30.0117 53.5977 29.3672 50.2461 29.3672H40.2617V45.6445Z" fill="#554F4F"/>
</svg>
